<?xml version="1.0" standalone="no"?>
<!DOCTYPE svg PUBLIC "-//W3C//DTD SVG 20010904//EN"
 "http://www.w3.org/TR/2001/REC-SVG-20010904/DTD/svg10.dtd">
<svg version="1.0" xmlns="http://www.w3.org/2000/svg"
 width="256.000000pt" height="256.000000pt" viewBox="0 0 256.000000 256.000000"
 preserveAspectRatio="xMidYMid meet">

<g transform="translate(0.000000,256.000000) scale(0.100000,-0.100000)"
fill="#000000" stroke="none">
<path d="M849 1947 c-87 -24 -171 -108 -237 -234 -34 -67 -47 -81 -81 -96 -97
-43 -172 -205 -187 -407 -9 -123 5 -178 61 -229 117 -108 345 -171 617 -171
218 0 443 40 586 105 28 13 52 22 52 21 0 -2 -7 -17 -15 -32 -36 -69 -5 -158
78 -231 56 -49 96 -67 153 -67 43 -1 60 5 95 30 24 18 45 40 47 50 3 21 16 53
38 97 8 16 14 36 14 45 0 9 7 26 15 36 23 30 18 54 -15 88 -17 17 -30 32 -28
33 2 1 30 9 63 16 l59 15 29 168 c15 93 26 170 24 172 -2 2 -75 -20 -162 -49
-128 -43 -160 -57 -166 -75 -5 -12 -15 -25 -23 -28 -8 -3 -33 -36 -54 -72 -46
-77 -92 -126 -92 -99 0 9 8 25 19 36 12 12 21 41 26 85 7 72 1 90 -38 102 -12
4 -43 23 -69 43 -44 32 -46 36 -28 43 37 14 120 90 120 110 0 11 9 31 19 44
20 26 18 56 -5 75 -8 6 -14 18 -14 26 0 23 -107 128 -150 148 -30 13 -42 26
-51 54 -45 141 -144 172 -324 102 l-73 -28 -79 38 c-89 43 -157 54 -224 36z
m214 -45 c70 -32 101 -60 116 -102 l9 -28 -56 26 c-49 23 -70 27 -147 27 -91
0 -140 -15 -199 -60 -38 -29 -8 -25 54 7 56 29 73 33 144 33 71 0 90 -4 151
-33 86 -41 130 -74 150 -112 24 -47 18 -52 -28 -26 -23 14 -71 33 -107 42
-114 29 -184 6 -296 -98 l-67 -63 49 -43 c106 -93 212 -120 322 -83 35 12 80
33 101 47 l38 24 69 -32 c61 -29 79 -33 154 -33 76 0 92 3 149 33 35 17 67 30
69 27 7 -6 -28 -45 -41 -45 -5 0 -18 -11 -28 -24 -10 -13 -38 -28 -63 -35 -63
-16 -185 -13 -216 4 -28 16 -50 19 -50 7 0 -9 104 -62 121 -62 6 0 7 5 4 10
-10 16 122 12 153 -4 15 -8 35 -23 45 -34 17 -19 16 -20 -40 -41 -196 -73
-509 -77 -705 -9 -96 32 -116 31 -160 -10 -41 -38 -39 -93 5 -125 70 -52 181
-76 387 -84 150 -5 410 13 513 36 l38 9 -3 -31 c-2 -27 -12 -37 -58 -65 -217
-129 -740 -167 -1014 -72 -139 47 -236 115 -257 177 -8 25 -10 73 -6 147 9
180 70 335 151 386 19 11 37 20 41 20 4 0 5 -23 2 -51 -5 -37 -3 -49 6 -46 7
2 15 29 19 60 14 110 129 291 211 334 83 43 172 41 270 -5z m393 2 c33 -16 52
-41 74 -98 l9 -25 -41 15 c-57 20 -145 18 -220 -6 -34 -11 -64 -16 -66 -11 -1
4 -11 25 -21 45 -19 36 -19 36 2 48 84 45 205 59 263 32z m105 -158 c48 -23
93 -55 120 -84 24 -25 35 -39 24 -31 -33 26 -84 39 -157 39 -81 0 -121 -15
-177 -65 -39 -36 -41 -36 -41 -14 -1 38 -34 103 -69 132 -26 21 -29 28 -17 33
119 46 208 43 317 -10z m-376 -103 c48 -17 125 -61 125 -72 0 -4 -26 1 -57 12
-82 29 -245 29 -326 1 -56 -21 -57 -21 -40 -1 25 26 98 68 136 77 39 9 108 2
162 -17z m461 -8 c30 -9 62 -27 79 -46 24 -25 26 -30 10 -24 -74 28 -145 45
-194 45 -56 0 -140 -22 -171 -44 -8 -6 -4 2 9 16 57 64 161 85 267 53z m-381
-74 c28 -10 49 -22 48 -27 -1 -10 -87 -42 -115 -43 -15 -1 -18 8 -18 44 0 52
6 54 85 26z m455 -9 l45 -16 -31 -12 c-17 -7 -43 -16 -58 -20 -23 -5 -26 -3
-26 19 0 14 -3 33 -7 43 -5 14 -3 16 13 10 10 -5 39 -15 64 -24z m-764 2 c-3
-9 -6 -27 -6 -41 0 -23 -3 -24 -32 -18 -18 4 -46 13 -63 19 l-30 13 55 21 c67
26 84 27 76 6z m468 -21 c-4 -21 -7 -39 -8 -40 -4 -5 -86 20 -86 26 0 9 72 50
88 51 9 0 11 -10 6 -37z m144 28 c21 -13 10 -46 -16 -49 -27 -4 -40 22 -22 43
14 17 20 18 38 6z m-460 -27 c4 -26 -22 -38 -49 -24 -22 12 -24 21 -7 38 19
19 53 10 56 -14z m642 -34 c-14 -11 -54 -35 -89 -52 -56 -28 -75 -33 -140 -33
-63 0 -87 5 -138 29 -36 16 -63 35 -63 43 0 9 6 13 14 10 102 -39 248 -41 351
-5 88 31 96 32 65 8z m-680 -41 c53 0 111 7 155 20 38 11 71 18 73 16 9 -8
-84 -65 -131 -81 -106 -35 -211 -14 -302 60 l-30 25 75 -21 c49 -13 105 -20
160 -19z m1074 -184 c-37 -41 -63 -64 -73 -61 -9 3 -43 13 -76 22 l-60 17 125
43 c69 23 129 43 133 43 5 1 -18 -28 -49 -64z m-198 -113 l31 -87 69 -12 c99
-18 114 -22 114 -33 0 -14 -52 -12 -138 4 -40 7 -74 10 -77 6 -2 -4 -16 -5
-30 -2 -21 4 -25 10 -25 41 0 60 12 171 19 171 3 0 20 -39 37 -88z m-76 -41
c-4 -60 -9 -72 -33 -91 -15 -12 -27 -30 -27 -41 0 -11 -7 -31 -16 -44 -11 -17
-14 -36 -10 -56 3 -17 1 -39 -4 -49 -11 -20 5 -70 23 -70 5 0 4 -7 -3 -14 -17
-22 -8 -57 21 -78 30 -23 109 -37 109 -19 0 6 -9 11 -20 11 -32 0 -90 27 -96
45 -12 31 11 38 67 22 29 -9 55 -14 57 -12 10 10 -12 24 -55 35 -62 15 -85 32
-81 62 4 29 42 35 94 13 20 -8 39 -13 42 -10 11 10 -14 24 -66 38 -67 17 -79
29 -64 61 9 21 15 24 39 17 22 -7 110 -46 156 -69 4 -2 7 1 7 8 0 10 -118 72
-160 83 -24 6 -26 29 -5 47 31 26 151 -11 209 -65 29 -27 35 -72 11 -81 -8 -4
-15 -19 -15 -34 0 -16 -4 -32 -10 -35 -5 -3 -10 -17 -10 -29 0 -13 -7 -29 -15
-36 -8 -7 -15 -23 -15 -35 0 -15 -13 -31 -38 -49 -44 -30 -102 -34 -157 -12
-73 31 -165 143 -165 202 0 36 48 119 105 183 31 35 70 88 87 118 16 29 33 53
37 53 3 0 4 -31 1 -69z"/>
<path d="M1118 1341 c-95 -40 -121 -57 -70 -48 46 9 182 67 182 78 0 14 -19 9
-112 -30z"/>
</g>
</svg>
